<svg xmlns="http://www.w3.org/2000/svg" viewBox="0 0 56 56">
  <defs>
    <style>
      .cls-1 {
        fill: rgb(98, 211, 145);
        fill-rule: evenodd;
      }
    </style>
  </defs>
  <g id="pest_icon_PC_" data-name="pest icon(PC)" transform="translate(-0.669 0.664)">
    <path id="Path_198" data-name="Path 198" class="cls-1" d="M20.156,37.258c6.218.124,11.122-6.586,10.954-14.989a18.863,18.863,0,0,0-3.419-10.7c-2.1-2.867-13.912-3.228-15.885-.62A17.514,17.514,0,0,0,8.593,21.819C8.761,30.221,13.938,37.134,20.156,37.258ZM0,18A1.163,1.163,0,0,1,1.2,16.8l4.858.1A1.277,1.277,0,0,1,7.3,18.143a1.163,1.163,0,0,1-1.2,1.193l-4.858-.1A1.277,1.277,0,0,1,0,18ZM2.37,8.583a1.171,1.171,0,0,1,1.479-.829L8.566,9.1a1.269,1.269,0,0,1,.9,1.509,1.171,1.171,0,0,1-1.479.829L3.265,10.092A1.269,1.269,0,0,1,2.37,8.583ZM.935,28.085a1.171,1.171,0,0,1,.836-1.475l4.667-1.164a1.269,1.269,0,0,1,1.513.889,1.171,1.171,0,0,1-.836,1.475L2.448,28.974A1.269,1.269,0,0,1,.935,28.085Zm4.825,10.1a1.192,1.192,0,0,1,.417-1.656l4.159-2.345a1.247,1.247,0,0,1,1.676.476,1.192,1.192,0,0,1-.417,1.656L7.436,38.663A1.247,1.247,0,0,1,5.76,38.187ZM39.839,18.794a1.281,1.281,0,0,0-1.247-1.242l-4.858-.1a1.16,1.16,0,0,0-1.2,1.193,1.282,1.282,0,0,0,1.247,1.242l4.858.1A1.16,1.16,0,0,0,39.839,18.794ZM37.091,9.278a1.273,1.273,0,0,0-1.513-.889L30.91,9.552a1.167,1.167,0,0,0-.836,1.475,1.273,1.273,0,0,0,1.513.889l4.667-1.164A1.167,1.167,0,0,0,37.091,9.278Zm2.217,19.575a1.273,1.273,0,0,0-.9-1.509l-4.718-1.351a1.167,1.167,0,0,0-1.478.829,1.273,1.273,0,0,0,.9,1.509l4.718,1.351A1.167,1.167,0,0,0,39.307,28.853Zm-4.424,9.917a1.252,1.252,0,0,0-.483-1.674l-4.256-2.513a1.188,1.188,0,0,0-1.658.41,1.251,1.251,0,0,0,.483,1.674l4.256,2.513A1.189,1.189,0,0,0,34.883,38.769ZM14.761,6.175c.846,1.689,9.245,1.937,10.074.372a3.812,3.812,0,0,0,.448-1.872C25.233,2.154,22.74.062,19.715,0s-5.436,1.934-5.386,4.455A4.005,4.005,0,0,0,14.761,6.175Z" transform="translate(0.669 27.506) rotate(-45)"/>
  </g>
</svg>
