<svg xmlns="http://www.w3.org/2000/svg" viewBox="0 0 24 24">
  <defs>
    <style>
      .cls-1 {
        fill: none;
      }

      .cls-2 {
        fill: #fff;
      }
    </style>
  </defs>
  <g id="搜尋" transform="translate(-1448 -28)">
    <rect id="邊框" class="cls-1" width="24" height="24" transform="translate(1448 28)"/>
    <path id="搜尋icon" class="cls-2" d="M3,10.5A7.427,7.427,0,0,1,10.5,3,7.427,7.427,0,0,1,18,10.5,7.427,7.427,0,0,1,10.5,18,7.427,7.427,0,0,1,3,10.5ZM21.45,23.55a1.485,1.485,0,1,0,2.1-2.1L18.9,16.8A10.27,10.27,0,0,0,21,10.5,10.435,10.435,0,0,0,10.5,0,10.435,10.435,0,0,0,0,10.5,10.435,10.435,0,0,0,10.5,21a10.27,10.27,0,0,0,6.3-2.1Z" transform="translate(1448 28)"/>
  </g>
</svg>
