<svg xmlns="http://www.w3.org/2000/svg" viewBox="0 0 180 180">
  <defs>
    <style>
      .cls-1 {
        fill: #fff;
        stroke: #3ba3fb;
        stroke-width: 5px;
      }

      .cls-2 {
        fill: #3ba3fb;
      }

      .cls-3 {
        stroke: none;
      }

      .cls-4 {
        fill: none;
      }
    </style>
  </defs>
  <g id="camera_icon" transform="translate(-90 -214)">
    <g id="Ellipse_112" data-name="Ellipse 112" class="cls-1" transform="translate(90 214)">
      <circle class="cls-3" cx="90" cy="90" r="90"/>
      <circle class="cls-4" cx="90" cy="90" r="87.5"/>
    </g>
    <g id="if_icon-camera_211634" transform="translate(130 265)">
      <path id="Path_203" data-name="Path 203" class="cls-2" d="M139.923,108.352H123.7l-9.712-9.881s-.048-.048-.072-.048l-.048-.048h0a7.835,7.835,0,0,0-5.6-2.373H88.072a7.923,7.923,0,0,0-5.913,2.64v.024l-9.5,9.688H56.077A8.012,8.012,0,0,0,48,116.392v48.946a8.115,8.115,0,0,0,8.077,8.162h83.846A8.13,8.13,0,0,0,148,165.339V116.392A8.027,8.027,0,0,0,139.923,108.352ZM98,161.27a22.428,22.428,0,1,1,22.212-22.427A22.362,22.362,0,0,1,98,161.27Zm40.409-39.961a3.415,3.415,0,1,1,3.365-3.415A3.393,3.393,0,0,1,138.409,121.309Z" transform="translate(-48 -96)"/>
      <path id="Path_204" data-name="Path 204" class="cls-2" d="M202.979,202.9a16.954,16.954,0,1,0,16.779,16.953A16.853,16.853,0,0,0,202.979,202.9Z" transform="translate(-152.979 -177.01)"/>
    </g>
  </g>
</svg>
