<svg xmlns="http://www.w3.org/2000/svg" viewBox="0 0 80 80">
  <defs>
    <style>
      .cls-1 {
        fill: #fff;
      }

      .cls-2, .cls-3 {
        stroke: none;
      }

      .cls-3 {
        fill: #24a7ff;
      }
    </style>
  </defs>
  <g id="Intersection_1" data-name="Intersection 1" class="cls-1" transform="translate(1890 -100)">
    <path class="cls-2" d="M -1889.5 179.4983520507813 L -1889.5 100.4999008178711 L -1810.501586914063 100.4999008178711 C -1810.534057617188 105.7272644042969 -1811.076538085938 110.9467315673828 -1812.115112304688 116.0224609375 C -1813.15966796875 121.126594543457 -1814.718139648438 126.1471862792969 -1816.747314453125 130.9447631835938 C -1818.73974609375 135.6553497314453 -1821.205810546875 140.1987609863281 -1824.077026367188 144.4487915039063 C -1826.921142578125 148.6585540771484 -1830.187377929688 152.6172485351563 -1833.785034179688 156.2149200439453 C -1837.382690429688 159.8125762939453 -1841.34130859375 163.0788116455078 -1845.551147460938 165.9228668212891 C -1849.801147460938 168.7941131591797 -1854.344482421875 171.2602081298828 -1859.05517578125 173.2526245117188 C -1863.852661132813 175.2818145751953 -1868.873291015625 176.8403015136719 -1873.977416992188 177.8847351074219 C -1879.053100585938 178.9233856201172 -1884.272583007813 179.4658355712891 -1889.5 179.4983520507813 Z"/>
    <path class="cls-3" d="M -1889 100.9999084472656 L -1889 178.99365234375 C -1883.9736328125 178.9307098388672 -1878.95849609375 178.3936767578125 -1874.07763671875 177.3948974609375 C -1869.005859375 176.3570556640625 -1864.01708984375 174.8084716796875 -1859.249877929688 172.7921142578125 C -1854.569091796875 170.8122863769531 -1850.054321289063 168.3617401123047 -1845.8310546875 165.508544921875 C -1841.647583007813 162.6823120117188 -1837.713745117188 159.4365234375 -1834.138549804688 155.8613586425781 C -1830.563354492188 152.2862091064453 -1827.317626953125 148.3522796630859 -1824.491333007813 144.1688842773438 C -1821.63818359375 139.9456176757813 -1819.187622070313 135.4308471679688 -1817.207763671875 130.7499847412109 C -1815.19140625 125.9828033447266 -1813.642822265625 120.9940338134766 -1812.60498046875 115.9222412109375 C -1811.606201171875 111.0413665771484 -1811.069213867188 106.0262451171875 -1811.006225585938 100.9999084472656 L -1889 100.9999084472656 M -1890 99.99990844726563 L -1810 99.99990844726563 C -1810 144.1827392578125 -1845.817138671875 179.9999084472656 -1890 179.9999084472656 L -1890 99.99990844726563 Z"/>
  </g>
</svg>
